<?xml version="1.0" encoding="UTF-8" standalone="no"?>
<!-- Generator: Adobe Illustrator 18.1.1, SVG Export Plug-In . SVG Version: 6.00 Build 0)  -->

<svg
   version="1.1"
   id="Capa_1"
   x="0px"
   y="0px"
   viewBox="0 0 32 32"
   style="enable-background:new 0 0 32 32;"
   xml:space="preserve"
   sodipodi:docname="pause.svg"
   inkscape:version="1.1.2 (0a00cf5339, 2022-02-04)"
   xmlns:inkscape="http://www.inkscape.org/namespaces/inkscape"
   xmlns:sodipodi="http://sodipodi.sourceforge.net/DTD/sodipodi-0.dtd"
   xmlns="http://www.w3.org/2000/svg"
   xmlns:svg="http://www.w3.org/2000/svg"><defs
   id="defs44" /><sodipodi:namedview
   id="namedview42"
   pagecolor="#ffffff"
   bordercolor="#666666"
   borderopacity="1.0"
   inkscape:pageshadow="2"
   inkscape:pageopacity="0.0"
   inkscape:pagecheckerboard="0"
   showgrid="false"
   inkscape:zoom="19.84375"
   inkscape:cx="14.56378"
   inkscape:cy="16.025197"
   inkscape:window-width="1920"
   inkscape:window-height="1054"
   inkscape:window-x="1920"
   inkscape:window-y="0"
   inkscape:window-maximized="1"
   inkscape:current-layer="g6" />
<g
   id="g9"
   transform="matrix(-0.99758242,0,0,1.0068824,31.93222,-0.06759505)">
	<g
   id="first">
		<g
   id="g6"
   transform="translate(-3.9599456,-0.09200183)">
			<path
   id="polygon2"
   style="fill:#1166bb;stroke-width:0.999998;fill-opacity:1"
   d="M 32.022152,0.0505762 V 32.051039 l -8.781126,-0.016 -0.04656,-31.88560967 c 0,0 1.504638,1.19068467 0,0 z"
   sodipodi:nodetypes="cccccc" />
			<path
   id="rect4"
   style="fill:#030104;stroke-width:1.00222"
   transform="matrix(-1.0024234,0,0,0.99316464,32.009606,0.06713301)"
   d="m 24.537109,4.3808594 c -0.0056,0.00237 -0.01186,0.00334 -0.01758,0.00586 -2.16e-4,0.00194 2.15e-4,0.00392 0,0.00586 0.006,-0.00372 0.01165,-0.00791 0.01758,-0.011719 z m 0.498047,4.4492187 c -0.01745,0.00842 -0.03505,0.016817 -0.05273,0.025391 9.48e-4,0.00562 0.0048,0.03016 0.0059,0.037109 0.02131,-0.01913 0.03942,-0.034885 0.05664,-0.050781 -0.0036,-0.00355 -0.0062,-0.00814 -0.0098,-0.011719 z m -0.0625,0.03125 c -0.0039,0.00192 -0.0078,0.00393 -0.01172,0.00586 -2.15e-4,0.00192 2.06e-4,0.00394 0,0.00586 0.0026,0.021466 0.0021,0.024947 0.0039,0.039063 0.0034,-0.00302 0.0063,-0.00475 0.0098,-0.00781 -8.43e-4,-0.015547 -0.0011,-0.026936 -0.002,-0.042969 z m 0.507813,0.765625 c -0.01837,-0.017786 -0.0071,0.050961 -0.01172,0.076172 0.01041,-0.023537 1.624303,-3.5182603 0.0332,-0.074219 -0.0072,-4.851e-4 1.388728,1.3636259 1.383687,1.3587449 z M 25.4375,9.890625 c -1.14e-4,-0.00398 -0.0015,0.00777 -0.002,0.011719 0.0032,1.228e-4 0.0065,-1.212e-4 0.0098,0 l 0.002,-0.00195 c -0.0028,-0.00365 0.07184,2.847215 0.07171,2.842601 z m -1.478516,4.162109 c 0.0026,0.0067 0.0064,0.01314 0.0098,0.01953 -6.92e-4,-0.0045 -6.1e-4,-0.0092 -0.002,-0.01367 -4.77e-4,-0.0011 4.77e-4,-0.0028 0,-0.0039 h -0.002 c -0.0023,-0.0012 -0.0066,-0.0037 -0.0059,-0.002 z m -0.0078,0.945313 v 0.160156 c 0.0075,-0.05599 0.02307,-0.100987 0.04297,-0.140625 -0.01374,-0.0059 -0.03143,-0.01346 -0.04297,-0.01953 z m 0.06641,0.396484 c -0.01262,0.01893 -0.04766,0.09689 -0.06641,0.13086 v 0.01172 c 0.02296,-0.04603 0.05805,-0.08671 0.07031,-0.136718 0.0029,-0.01195 2.69e-4,-0.01132 -0.0039,-0.0059 z m 2.705078,0.123047 c -0.0031,0.01183 -0.0065,0.02269 -0.0098,0.03516 0.0031,0.002 0.0067,0.0038 0.0098,0.0059 -1.3e-4,-0.01366 1.29e-4,-0.02736 0,-0.04102 z m 2.556641,0.34375 c -0.0065,0.0025 -0.01299,0.0053 -0.01953,0.0078 -0.0088,0.03807 -0.0167,0.07758 -0.02539,0.115234 0.0093,-0.0045 0.01813,-0.0093 0.02734,-0.01367 0.006,-0.03644 0.01152,-0.07294 0.01758,-0.109375 z m -4.726563,1.521484 c -0.0025,0.0042 -0.0053,0.0074 -0.0078,0.01172 0.0018,-1.2e-4 0.0041,1.28e-4 0.0059,0 5.14e-4,-0.0039 0.0014,-0.0078 0.002,-0.01172 z m -0.04687,0.16211 c -0.0013,0.0071 -0.0015,0.01431 -0.002,0.02148 0.0071,0.0061 0.01542,0.01037 0.02539,0.01563 5.54e-4,-0.0052 0.0014,-0.01041 0.002,-0.01563 -0.0095,-0.0067 -0.01836,-0.01343 -0.02539,-0.02148 z m -0.158203,1.708984 c -0.0023,6.11e-4 -0.0055,0.0014 -0.0078,0.002 0.0039,0.007 0.008,0.01096 0.01172,0.0098 -0.0013,-0.0039 -0.0026,-0.0078 -0.0039,-0.01172 z m -0.371094,4.113282 c -0.0087,0.0038 -0.01665,0.006 -0.02539,0.0098 v 0.02734 c 0.0077,-0.01246 0.01536,-0.02484 0.02539,-0.03711 z m 0.04102,1.794921 c -0.01647,0.0099 -0.04544,0.02818 -0.06641,0.04102 v 0.03711 c 0.02124,-0.02331 0.04256,-0.04771 0.06641,-0.06836 0.0025,-0.0021 0.0053,-0.0038 0.0078,-0.0059 -0.0027,-0.0014 -0.0051,-0.0025 -0.0078,-0.0039 z m 6.771484,0.07813 c -0.02004,0.0038 -0.0667,0.013 -0.08984,0.01758 0.0075,0.0028 0.01485,0.0066 0.02148,0.0098 0.02287,-0.0091 0.04555,-0.01874 0.06836,-0.02734 z"
   sodipodi:nodetypes="sccsssccccscccccccsccssscccssccccccccccsccccccccccsccccccccccccccccccccscccccccccccccccccc" />
		<path
   id="path1179"
   style="fill:#1166bb;stroke-width:0.999998;fill-opacity:1"
   d="M 16.697431,0.10459052 V 32.105053 l -8.781126,-0.016 -0.04656,-31.88560935 c 0,0 1.504638,1.19068465 0,0 z"
   sodipodi:nodetypes="cccccc" /></g>
	</g>
</g>
<g
   id="g11">
</g>
<g
   id="g13">
</g>
<g
   id="g15">
</g>
<g
   id="g17">
</g>
<g
   id="g19">
</g>
<g
   id="g21">
</g>
<g
   id="g23">
</g>
<g
   id="g25">
</g>
<g
   id="g27">
</g>
<g
   id="g29">
</g>
<g
   id="g31">
</g>
<g
   id="g33">
</g>
<g
   id="g35">
</g>
<g
   id="g37">
</g>
<g
   id="g39">
</g>
</svg>
